<svg xmlns="http://www.w3.org/2000/svg" xmlns:xlink="http://www.w3.org/1999/xlink" width="161" height="63" viewBox="0 0 161 63"><defs><path id="bvgha" d="M1557 44.04h36.24v41.34H1557z"/><path id="bvghd" d="M1557.32 51.19l23.55 13.53-23.46 13.47c-.47.3-.4.77-.4.77l.04 6.02s.11.64.69.3l35.23-20.17s.27-.14.27-.4c0-.25-.27-.39-.27-.39l-35.2-20.17c-.94-.46-.72.68-.72.68l-.05 5.56s-.06.61.32.8"/><path id="bvghe" d="M1618.48 62.37c.35.7.52 1.52.52 2.47 0 .94-.17 1.76-.52 2.46-.33.68-.82 1.2-1.46 1.55-.64.36-1.4.54-2.3.54h-2.91a.25.25 0 0 1-.19-.08.25.25 0 0 1-.07-.18v-8.58a.25.25 0 0 1 .26-.26h2.91c.89 0 1.66.18 2.3.53a3.5 3.5 0 0 1 1.46 1.55m-2.1 4.52c.4-.46.6-1.15.6-2.05 0-.9-.2-1.6-.6-2.06-.41-.46-1.02-.69-1.81-.69h-1.1v5.5h1.1c.8 0 1.4-.23 1.8-.7"/><path id="bvghf" d="M1626.22 62.07v1.74h3.03c.07 0 .13.03.18.08.06.05.08.11.08.19v1.26c0 .07-.02.13-.08.18a.25.25 0 0 1-.18.08h-3.03v2h4.29c.07 0 .13.04.18.09.06.05.08.1.08.18v1.26c0 .07-.02.13-.08.18a.25.25 0 0 1-.18.08h-5.96a.25.25 0 0 1-.19-.08.25.25 0 0 1-.08-.18v-8.58c0-.07.03-.13.08-.18a.25.25 0 0 1 .19-.08h5.96c.07 0 .13.02.18.08.06.05.08.1.08.18v1.26c0 .07-.02.13-.08.18a.25.25 0 0 1-.18.08z"/><path id="bvghg" d="M1639.94 69.74l-4.8-9.12c-.04-.07-.05-.12-.03-.16a.26.26 0 0 1 .1-.1l.16-.05 1.54-.02a.4.4 0 0 1 .1 0l.1.05c.04.01.07.05.1.1l2.92 5.84 2.93-5.82c.03-.05.06-.1.1-.12a.32.32 0 0 1 .1-.04H1644.99c.06.03.1.05.14.09a.2.2 0 0 1 .06.1c.02.05 0 .1-.02.16l-4.84 9.09a.25.25 0 0 1-.05.06.39.39 0 0 1-.06.05.15.15 0 0 1-.08.02v-.02.02c-.03 0-.06 0-.09-.02a.38.38 0 0 1-.06-.05.24.24 0 0 1-.04-.06"/><path id="bvghh" d="M1618.98 87.29c.02.07.02.13 0 .19-.02.05-.08.1-.17.15a6.63 6.63 0 0 1-1.92.58c-.39.07-.81.1-1.27.1a3.98 3.98 0 0 1-3.79-2.25 5.74 5.74 0 0 1-.52-2.55c0-.98.17-1.83.53-2.55a4 4 0 0 1 1.5-1.66c.34-.2.69-.34 1.06-.43.37-.1.78-.14 1.21-.14.55 0 1.08.06 1.6.18.5.11 1.04.28 1.6.5.07.03.13.07.16.14.03.06.03.13 0 .2l-.42 1.2a.27.27 0 0 1-.13.16.25.25 0 0 1-.2.01 21.66 21.66 0 0 0-1.32-.43 5.41 5.41 0 0 0-1.2-.13c-.75 0-1.32.25-1.72.76-.4.5-.61 1.23-.61 2.19 0 .97.2 1.7.6 2.2.42.5.99.76 1.72.76a6 6 0 0 0 1.2-.14c.08-.01.2-.04.34-.09l.44-.14.53-.19a.26.26 0 0 1 .35.17z"/><path id="bvghi" d="M1631.41 79.05c.06.05.08.11.08.18v8.59c0 .07-.02.13-.08.18a.26.26 0 0 1-.18.08h-1.43a.26.26 0 0 1-.2-.08.25.25 0 0 1-.07-.18v-3.56H1626v3.56c0 .07-.03.13-.08.18a.26.26 0 0 1-.19.08h-1.43a.26.26 0 0 1-.19-.08.25.25 0 0 1-.08-.18v-8.59c0-.07.03-.13.08-.18a.26.26 0 0 1 .19-.08h1.43c.07 0 .14.03.19.08.05.05.08.11.08.18v3.3h3.52v-3.3c0-.07.02-.13.08-.18a.26.26 0 0 1 .19-.08h1.43c.07 0 .13.03.18.08"/><path id="bvghj" d="M1645.16 87.7c.03.07.04.13.02.17a.2.2 0 0 1-.06.11.47.47 0 0 1-.14.08h-1.6a.26.26 0 0 1-.11 0 .32.32 0 0 1-.1-.04.26.26 0 0 1-.1-.12l-.8-1.56h-4.26l-.8 1.58a.3.3 0 0 1-.1.12.28.28 0 0 1-.1.03h-.1l-1.54-.01a.52.52 0 0 1-.17-.06.26.26 0 0 1-.1-.1c-.01-.03 0-.08.03-.15l4.8-9.12a.24.24 0 0 1 .05-.07c.04-.04.1-.06.15-.07v.03-.03c.05 0 .1.03.14.07l.05.07zm-3.8-3.19l-1.23-2.43-1.22 2.43z"/><path id="bvghk" d="M1655.92 86.32c.06.05.08.11.08.2v1.3c0 .07-.02.13-.08.18a.26.26 0 0 1-.18.08h-6.2a.26.26 0 0 1-.19-.08.25.25 0 0 1-.08-.18v-8.59c0-.07.03-.13.08-.18a.26.26 0 0 1 .2-.08h1.42c.07 0 .13.03.18.08.06.05.08.11.08.18v7.01h4.5c.08 0 .14.03.2.08"/><path id="bvghl" d="M1668.42 86.32c.05.05.08.11.08.2v1.3c0 .07-.03.13-.08.18a.26.26 0 0 1-.19.08h-6.2a.26.26 0 0 1-.18-.08.25.25 0 0 1-.08-.18v-8.59c0-.07.03-.13.08-.18a.26.26 0 0 1 .19-.08h1.42c.08 0 .14.03.19.08.05.05.08.11.08.18v7.01h4.5c.08 0 .14.03.19.08"/><path id="bvghm" d="M1675.96 80.76v1.74h3.03c.07 0 .13.02.19.08.05.05.07.1.07.18v1.26c0 .07-.02.13-.07.18a.25.25 0 0 1-.19.08h-3.03v2.01h4.3c.06 0 .12.03.18.08.05.05.07.11.07.19v1.25c0 .08-.02.14-.07.19a.25.25 0 0 1-.19.08h-5.96a.25.25 0 0 1-.19-.08.25.25 0 0 1-.07-.19v-8.58a.25.25 0 0 1 .26-.26h5.96c.07 0 .13.03.19.08.05.05.07.11.07.18v1.26c0 .08-.02.14-.07.19a.25.25 0 0 1-.19.08z"/><path id="bvghn" d="M1694.13 79.08c.05.05.08.11.08.18v8.68c0 .09-.01.16-.03.2a.35.35 0 0 1-.07.12.21.21 0 0 1-.1.06h-.35a.36.36 0 0 1-.15-.04.63.63 0 0 1-.15-.1.76.76 0 0 1-.15-.13l-5.45-5.25v5.23c0 .08-.03.14-.08.2a.26.26 0 0 1-.19.07h-1.42a.26.26 0 0 1-.2-.08.26.26 0 0 1-.07-.19v-8.67c0-.1.01-.16.04-.2a.38.38 0 0 1 .09-.12.47.47 0 0 1 .12-.06h.35c.05 0 .1 0 .15.04l.15.1.16.13 5.4 5.21v-5.2c0-.07.02-.13.07-.18a.26.26 0 0 1 .19-.08h1.42c.08 0 .14.02.2.08"/><path id="bvgho" d="M1706.22 87.03c0 .13-.01.23-.04.31-.02.08-.1.16-.24.23-.46.25-.97.43-1.54.55-.57.13-1.18.2-1.82.2-.86 0-1.6-.2-2.26-.59a3.92 3.92 0 0 1-1.5-1.66 5.64 5.64 0 0 1-.52-2.55c0-.49.04-.94.12-1.37.1-.42.23-.82.4-1.17a3.91 3.91 0 0 1 3.76-2.25 7.03 7.03 0 0 1 2.16.32 11.32 11.32 0 0 1 1.21.44.3.3 0 0 1 .11.14c.02.05.02.1 0 .16l-.42 1.2a.27.27 0 0 1-.14.16.25.25 0 0 1-.2.01 16.41 16.41 0 0 0-1.75-.49c-.31-.06-.6-.1-.89-.1-.74 0-1.3.26-1.72.76-.4.5-.6 1.24-.6 2.2 0 .95.2 1.67.61 2.18.4.5.97.76 1.71.76a5.33 5.33 0 0 0 1.6-.24v-1.52h-1.9a.27.27 0 0 1-.2-.08.25.25 0 0 1-.08-.18v-1.22c0-.08.03-.14.08-.2a.27.27 0 0 1 .2-.07h3.6c.07 0 .13.03.19.08.05.05.08.11.08.19z"/><path id="bvghb" d="M1711.54 79.01h6.45v9.27h-6.45z"/><path id="bvghq" d="M1713.46 80.83v1.77h3.02c.07 0 .13.03.18.08.05.05.08.11.08.19v1.28c0 .07-.03.13-.08.19a.25.25 0 0 1-.18.07h-3.02v2.05h4.27c.07 0 .13.03.18.08.06.05.08.11.08.19V88c0 .07-.02.14-.08.19a.25.25 0 0 1-.18.08h-5.93a.25.25 0 0 1-.18-.08.26.26 0 0 1-.08-.19v-8.73c0-.07.03-.14.08-.19a.25.25 0 0 1 .18-.08h5.93c.07 0 .13.03.18.08.06.05.08.12.08.19v1.28c0 .07-.02.14-.08.19a.25.25 0 0 1-.18.08z"/><path id="bvghr" d="M1618.2 105.27c.05.05.08.11.08.18v1.3c0 .07-.03.13-.07.18a.23.23 0 0 1-.18.07h-5.72a.23.23 0 0 1-.17-.07.25.25 0 0 1-.07-.18v-1.3c0-.07.02-.13.07-.18.04-.05.1-.07.17-.07h1.94v-4.89l-1.74 1.01a.22.22 0 0 1-.19.03.27.27 0 0 1-.15-.12l-.6-1.03a.26.26 0 0 1-.01-.2.25.25 0 0 1 .1-.14l2.98-1.73 1.1-.63c.09-.05.16-.08.22-.08s.1.01.13.04.05.07.06.12l.02.17v7.45h1.86c.07 0 .13.02.18.07"/><path id="bvghs" d="M1631.66 105.27c.05.05.07.1.07.18v1.3c0 .07-.02.13-.07.18a.25.25 0 0 1-.18.07h-7.24a.2.2 0 0 1-.17-.12.25.25 0 0 1-.03-.11c0-.04.03-.09.06-.13l4.25-4.17a124.68 124.68 0 0 0 .72-.74 3 3 0 0 0 .37-.54c.1-.2.14-.37.14-.56 0-.36-.1-.64-.32-.84-.23-.2-.54-.3-.94-.3a4.52 4.52 0 0 0-1 .14 18.3 18.3 0 0 0-1.29.52.27.27 0 0 1-.2.02.22.22 0 0 1-.14-.13l-.55-1.13c-.07-.14-.03-.25.11-.34a19.01 19.01 0 0 1 1.67-.7 3.89 3.89 0 0 1 1.47-.21c.68 0 1.26.12 1.74.35.48.25.84.58 1.08 1.01.24.43.37.94.37 1.54 0 .52-.14 1.01-.4 1.48a6.6 6.6 0 0 1-1.2 1.44l-1.77 1.72h3.27c.07 0 .13.02.18.07"/><clipPath id="bvghc"><use xlink:href="#bvgha"/></clipPath><clipPath id="bvghp"><use xlink:href="#bvghb"/></clipPath></defs><g><g transform="translate(-1557 -44)"><g><g/><g clip-path="url(#bvghc)"><use fill="#ffd200" xlink:href="#bvghd"/></g></g><g><use fill="#333" xlink:href="#bvghe"/></g><g><use fill="#333" xlink:href="#bvghf"/></g><g><use fill="#333" xlink:href="#bvghg"/></g><g><use fill="#333" xlink:href="#bvghh"/></g><g><use fill="#333" xlink:href="#bvghi"/></g><g><use fill="#333" xlink:href="#bvghj"/></g><g><use fill="#333" xlink:href="#bvghk"/></g><g><use fill="#333" xlink:href="#bvghl"/></g><g><use fill="#333" xlink:href="#bvghm"/></g><g><use fill="#333" xlink:href="#bvghn"/></g><g><use fill="#333" xlink:href="#bvgho"/></g><g><g/><g clip-path="url(#bvghp)"><use fill="#333" xlink:href="#bvghq"/></g></g><g><use fill="#333" xlink:href="#bvghr"/></g><g><use fill="#333" xlink:href="#bvghs"/></g></g></g></svg>