<svg xmlns="http://www.w3.org/2000/svg" xmlns:xlink="http://www.w3.org/1999/xlink" width="188" height="46" viewBox="0 0 188 46"><defs><path id="nmwva" d="M26 28.03h26.28v30.18H26z"/><path id="nmwvd" d="M26.23 33.25l17.08 9.88-17.01 9.83c-.34.22-.3.57-.3.57l.03 4.4s.09.46.5.2l25.55-14.71s.2-.11.2-.3c0-.18-.2-.28-.2-.28L26.55 28.1c-.67-.34-.52.5-.52.5L26 32.66s-.05.45.23.59"/><path id="nmwve" d="M70.58 41.41c.25.51.37 1.11.37 1.8 0 .7-.12 1.3-.37 1.8-.24.5-.6.88-1.06 1.14-.46.26-1.02.39-1.67.39h-2.11a.18.18 0 0 1-.13-.06.18.18 0 0 1-.06-.13v-6.27c0-.05.02-.1.06-.13a.18.18 0 0 1 .13-.06h2.11c.65 0 1.2.13 1.67.39s.82.64 1.06 1.13m-1.53 3.3c.3-.33.45-.83.45-1.5 0-.66-.15-1.16-.45-1.5-.3-.33-.73-.5-1.3-.5h-.8v4.02h.8c.57 0 1.01-.17 1.3-.51"/><path id="nmwvf" d="M76.19 41.2v1.27h2.2c.05 0 .1.02.13.05.04.04.06.09.06.14v.92c0 .05-.02.1-.06.13a.18.18 0 0 1-.13.06h-2.2v1.47h3.11c.05 0 .1.02.13.05.04.04.06.09.06.14v.92c0 .05-.02.1-.06.13a.18.18 0 0 1-.13.06h-4.32a.18.18 0 0 1-.14-.06.18.18 0 0 1-.05-.13v-6.27c0-.05.01-.1.05-.13a.18.18 0 0 1 .14-.06h4.32c.05 0 .1.02.13.06.04.04.06.08.06.13V41c0 .06-.02.1-.06.14a.18.18 0 0 1-.13.05z"/><path id="nmwvg" d="M86.14 46.8l-3.49-6.67c-.02-.05-.03-.08-.02-.11a.19.19 0 0 1 .07-.07.38.38 0 0 1 .12-.04l1.12-.01h.08c.02 0 .05.01.07.03a.2.2 0 0 1 .07.08l2.12 4.26 2.12-4.25a.19.19 0 0 1 .08-.09.23.23 0 0 1 .07-.03.2.2 0 0 1 .08 0h1.16l.1.06.05.08c.01.04 0 .08-.02.12l-3.5 6.63-.04.05a.28.28 0 0 1-.04.03.1.1 0 0 1-.06.02v-.02.02c-.03 0-.05 0-.07-.02a.28.28 0 0 1-.04-.03.18.18 0 0 1-.03-.05"/><path id="nmwvh" d="M104.04 45.96c.02.06.02.1 0 .14-.01.04-.05.08-.12.11a4.79 4.79 0 0 1-1.39.43c-.28.05-.59.07-.92.07-.63 0-1.18-.14-1.65-.42a2.9 2.9 0 0 1-1.1-1.22 4.22 4.22 0 0 1-.38-1.86c0-.72.13-1.34.38-1.87a2.9 2.9 0 0 1 1.1-1.21c.24-.15.5-.25.77-.31a5.22 5.22 0 0 1 2.03.03c.37.08.76.2 1.16.36.06.02.1.06.12.1.02.05.02.1 0 .15l-.3.88a.2.2 0 0 1-.1.12.18.18 0 0 1-.15 0 15.58 15.58 0 0 0-.95-.31 3.9 3.9 0 0 0-.88-.1c-.53 0-.95.19-1.24.55-.3.37-.44.9-.44 1.6 0 .71.14 1.25.44 1.61.3.37.7.55 1.24.55a4.32 4.32 0 0 0 1.12-.16l.31-.1.4-.14a.19.19 0 0 1 .24.12z"/><path id="nmwvi" d="M113.06 39.95c.04.04.06.08.06.13v6.27c0 .05-.02.1-.06.13a.19.19 0 0 1-.14.06h-1.03a.19.19 0 0 1-.14-.06.18.18 0 0 1-.06-.13v-2.6h-2.55v2.6c0 .05-.02.1-.06.13a.19.19 0 0 1-.13.06h-1.04a.19.19 0 0 1-.14-.06.18.18 0 0 1-.05-.13v-6.27c0-.05.02-.1.05-.13a.19.19 0 0 1 .14-.06h1.04c.05 0 .1.02.13.06.04.04.06.08.06.13v2.41h2.55v-2.4c0-.06.02-.1.06-.14a.19.19 0 0 1 .14-.06h1.03c.06 0 .1.02.14.06"/><path id="nmwvj" d="M123.03 46.27c.02.05.02.09.01.12 0 .04-.02.06-.04.08a.34.34 0 0 1-.1.06h-1.16a.2.2 0 0 1-.08 0 .23.23 0 0 1-.08-.03.19.19 0 0 1-.07-.09l-.58-1.14h-3.09l-.57 1.16a.22.22 0 0 1-.07.08.2.2 0 0 1-.08.03.2.2 0 0 1-.08 0l-1.11-.01a.37.37 0 0 1-.12-.04.19.19 0 0 1-.07-.07c-.02-.03-.01-.07.02-.12l3.48-6.66c0-.02.02-.03.03-.05a.17.17 0 0 1 .11-.05v.02-.02c.04 0 .07.02.1.05l.04.05zm-2.76-2.33l-.89-1.78-.88 1.78z"/><path id="nmwvk" d="M130.83 45.26c.04.03.06.08.06.14v.95c0 .05-.02.1-.06.13a.19.19 0 0 1-.13.06h-4.5a.19.19 0 0 1-.13-.06.18.18 0 0 1-.06-.13v-6.27c0-.05.02-.1.06-.13a.19.19 0 0 1 .13-.06h1.04c.05 0 .1.02.13.06.04.04.06.08.06.13v5.12h3.27c.05 0 .1.02.13.06"/><path id="nmwvl" d="M139.9 45.26c.03.03.05.08.05.14v.95c0 .05-.02.1-.06.13a.19.19 0 0 1-.13.06h-4.5a.19.19 0 0 1-.13-.06.18.18 0 0 1-.06-.13v-6.27c0-.05.02-.1.06-.13a.19.19 0 0 1 .13-.06h1.04c.05 0 .1.02.13.06.04.04.06.08.06.13v5.12h3.27c.05 0 .1.02.13.06"/><path id="nmwvm" d="M145.36 41.2v1.27h2.2c.05 0 .1.02.13.05.04.04.06.09.06.14v.92c0 .05-.02.1-.06.13a.18.18 0 0 1-.13.06h-2.2v1.47h3.11c.05 0 .1.02.14.05.03.04.05.09.05.14v.92c0 .05-.02.1-.05.13a.18.18 0 0 1-.14.06h-4.32a.18.18 0 0 1-.14-.06.18.18 0 0 1-.05-.13v-6.27c0-.05.02-.1.05-.13a.18.18 0 0 1 .14-.06h4.32c.05 0 .1.02.14.06.03.04.05.08.05.13V41c0 .06-.02.1-.05.14a.18.18 0 0 1-.14.05z"/><path id="nmwvn" d="M158.54 39.97c.03.04.05.08.05.14v6.33a.4.4 0 0 1-.02.15.26.26 0 0 1-.05.08.15.15 0 0 1-.07.04h-.25c-.04 0-.08 0-.12-.02a.46.46 0 0 1-.1-.07.55.55 0 0 1-.11-.1l-3.96-3.83v3.82c0 .05-.01.1-.05.14a.19.19 0 0 1-.14.05h-1.03a.18.18 0 0 1-.14-.05.19.19 0 0 1-.06-.14v-6.34c0-.06.01-.11.03-.14a.28.28 0 0 1 .07-.08.34.34 0 0 1 .09-.05h.25c.04 0 .07 0 .11.03l.1.07.12.1 3.91 3.8v-3.8c0-.05.02-.1.06-.13a.19.19 0 0 1 .14-.06h1.03c.05 0 .1.02.14.06"/><path id="nmwvo" d="M167.3 45.78c0 .1 0 .17-.03.22-.01.06-.07.12-.18.17a4 4 0 0 1-1.1.4c-.42.1-.86.14-1.33.14a2.85 2.85 0 0 1-2.72-1.64 5.07 5.07 0 0 1-.3-2.86c.07-.3.17-.6.3-.85a2.85 2.85 0 0 1 2.72-1.64 5.06 5.06 0 0 1 1.57.23 8.17 8.17 0 0 1 .88.32l.08.1v.12l-.31.88a.2.2 0 0 1-.1.12.18.18 0 0 1-.15 0 11.84 11.84 0 0 0-1.27-.36 3.26 3.26 0 0 0-.64-.06c-.53 0-.95.18-1.24.55-.3.36-.44.9-.44 1.6 0 .7.15 1.22.44 1.6.3.36.7.55 1.24.55a3.84 3.84 0 0 0 1.16-.18v-1.1h-1.38a.2.2 0 0 1-.14-.06.18.18 0 0 1-.06-.14v-.9c0-.05.02-.1.06-.13a.2.2 0 0 1 .14-.06h2.61c.05 0 .1.02.14.06.04.04.05.08.05.14z"/><path id="nmwvb" d="M171.16 39.92h4.68v6.77h-4.68z"/><path id="nmwvq" d="M172.55 41.25v1.3h2.19c.05 0 .1.01.13.05.04.04.06.08.06.14v.93c0 .06-.02.1-.06.14a.18.18 0 0 1-.13.06h-2.19v1.5h3.1c.05 0 .1.01.13.05.04.04.06.08.06.14v.93c0 .05-.02.1-.06.14a.18.18 0 0 1-.13.06h-4.3a.18.18 0 0 1-.13-.06.19.19 0 0 1-.06-.14v-6.37c0-.06.02-.1.06-.14a.18.18 0 0 1 .13-.06h4.3c.05 0 .1.02.13.06.04.04.06.08.06.14v.93c0 .06-.02.1-.06.14a.18.18 0 0 1-.13.06z"/><path id="nmwvr" d="M192.17 45.45c.03.04.05.08.05.13v.95c0 .05-.02.1-.05.13a.17.17 0 0 1-.13.05h-4.14a.17.17 0 0 1-.13-.05.18.18 0 0 1-.05-.13v-.95c0-.05.02-.09.05-.13a.17.17 0 0 1 .13-.05h1.4v-3.57l-1.26.74a.16.16 0 0 1-.14.02.2.2 0 0 1-.1-.09l-.44-.75a.19.19 0 0 1-.01-.14.19.19 0 0 1 .08-.11l2.16-1.27.79-.45a.4.4 0 0 1 .16-.06c.04 0 .07 0 .1.03.02.02.03.05.04.09l.01.12v5.44h1.35c.05 0 .1.02.13.05"/><path id="nmwvs" d="M201.93 45.45c.03.04.05.08.05.13v.95a.18.18 0 0 1-.19.18h-5.25c-.02 0-.05 0-.07-.02a.14.14 0 0 1-.05-.06.18.18 0 0 1-.02-.09c0-.03.02-.06.05-.1l3.07-3.03a91.08 91.08 0 0 0 .52-.54c.12-.14.21-.28.28-.4.06-.14.1-.27.1-.4a.8.8 0 0 0-.24-.62 1 1 0 0 0-.68-.21 3.26 3.26 0 0 0-.72.1l-.26.09a13.22 13.22 0 0 0-.67.29.2.2 0 0 1-.15 0 .16.16 0 0 1-.1-.09l-.4-.82c-.05-.1-.03-.18.08-.25a13.73 13.73 0 0 1 1.2-.5 2.8 2.8 0 0 1 1.07-.17c.5 0 .92.09 1.27.26.34.18.6.43.78.74.18.31.26.69.26 1.12 0 .38-.1.74-.29 1.08-.2.34-.48.7-.86 1.05l-1.29 1.26h2.37c.06 0 .1.02.14.05"/><path id="nmwvt" d="M179.5 46.71V45.5h4.53v1.22z"/><path id="nmwvu" d="M91.51 46.71V45.5h4.53v1.22z"/><clipPath id="nmwvc"><use xlink:href="#nmwva"/></clipPath><clipPath id="nmwvp"><use xlink:href="#nmwvb"/></clipPath></defs><g><g transform="translate(-26 -28)"><g><g><g/><g clip-path="url(#nmwvc)"><use fill="#ffd200" xlink:href="#nmwvd"/></g></g><g><use fill="#333" xlink:href="#nmwve"/></g><g><use fill="#333" xlink:href="#nmwvf"/></g><g><use fill="#333" xlink:href="#nmwvg"/></g><g><use fill="#333" xlink:href="#nmwvh"/></g><g><use fill="#333" xlink:href="#nmwvi"/></g><g><use fill="#333" xlink:href="#nmwvj"/></g><g><use fill="#333" xlink:href="#nmwvk"/></g><g><use fill="#333" xlink:href="#nmwvl"/></g><g><use fill="#333" xlink:href="#nmwvm"/></g><g><use fill="#333" xlink:href="#nmwvn"/></g><g><use fill="#333" xlink:href="#nmwvo"/></g><g><g/><g clip-path="url(#nmwvp)"><use fill="#333" xlink:href="#nmwvq"/></g></g><g><use fill="#333" xlink:href="#nmwvr"/></g><g><use fill="#333" xlink:href="#nmwvs"/></g><g><use fill="#333" xlink:href="#nmwvt"/></g><g><use fill="#333" xlink:href="#nmwvu"/></g></g></g></g></svg>